<svg width="163" height="40" viewBox="0 0 163 40" fill="none" xmlns="http://www.w3.org/2000/svg">
<path d="M58.208 29.0001V12.2001H65.288C66.28 12.2001 67.168 12.4401 67.952 12.9201C68.752 13.3841 69.384 14.0241 69.848 14.8401C70.328 15.6401 70.568 16.5441 70.568 17.5521C70.568 18.5921 70.328 19.5281 69.848 20.3601C69.384 21.1761 68.752 21.8321 67.952 22.3281C67.168 22.8081 66.28 23.0481 65.288 23.0481H61.664V29.0001H58.208ZM61.64 19.9041H64.928C65.52 19.9041 66.016 19.6881 66.416 19.2561C66.832 18.8081 67.04 18.2561 67.04 17.6001C67.04 16.9441 66.832 16.4081 66.416 15.9921C66.016 15.5601 65.52 15.3441 64.928 15.3441H61.64V19.9041Z" fill="#F7F7F7"/>
<path d="M78.959 29.2401C77.663 29.2401 76.511 28.9601 75.503 28.4001C74.495 27.8241 73.703 27.0401 73.127 26.0481C72.551 25.0561 72.263 23.9201 72.263 22.6401C72.263 21.3761 72.551 20.2481 73.127 19.2561C73.703 18.2641 74.495 17.4881 75.503 16.9281C76.511 16.3521 77.663 16.0641 78.959 16.0641C80.223 16.0641 81.359 16.3521 82.367 16.9281C83.375 17.4881 84.167 18.2641 84.743 19.2561C85.319 20.2481 85.607 21.3761 85.607 22.6401C85.607 23.9201 85.319 25.0561 84.743 26.0481C84.167 27.0401 83.375 27.8241 82.367 28.4001C81.359 28.9601 80.223 29.2401 78.959 29.2401ZM78.959 26.3841C79.599 26.3841 80.175 26.2241 80.687 25.9041C81.199 25.5681 81.591 25.1201 81.863 24.5601C82.151 24.0001 82.295 23.3601 82.295 22.6401C82.295 21.9201 82.151 21.2801 81.863 20.7201C81.591 20.1601 81.199 19.7201 80.687 19.4001C80.175 19.0801 79.599 18.9201 78.959 18.9201C78.303 18.9201 77.719 19.0801 77.207 19.4001C76.695 19.7201 76.295 20.1601 76.007 20.7201C75.719 21.2801 75.575 21.9201 75.575 22.6401C75.575 23.3601 75.719 24.0001 76.007 24.5601C76.295 25.1201 76.695 25.5681 77.207 25.9041C77.719 26.2241 78.303 26.3841 78.959 26.3841Z" fill="#F7F7F7"/>
<path d="M93.2122 29.2401C92.0922 29.2401 91.0922 28.9601 90.2122 28.4001C89.3322 27.8241 88.6362 27.0401 88.1242 26.0481C87.6282 25.0561 87.3802 23.9281 87.3802 22.6641C87.3802 21.3841 87.6282 20.2481 88.1242 19.2561C88.6362 18.2641 89.3322 17.4881 90.2122 16.9281C91.0922 16.3521 92.0922 16.0641 93.2122 16.0641C93.9802 16.0641 94.7082 16.2161 95.3962 16.5201C96.1002 16.824 96.6682 17.2161 97.1002 17.6961V11.2401H100.388V29.0001H97.2682L97.2202 27.4881C96.8042 27.9841 96.2362 28.4001 95.5162 28.7361C94.7962 29.0721 94.0282 29.2401 93.2122 29.2401ZM93.9322 26.5041C94.9082 26.5041 95.7002 26.1521 96.3082 25.4481C96.9162 24.7281 97.2202 23.8001 97.2202 22.6641C97.2202 21.5121 96.9162 20.5841 96.3082 19.8801C95.7002 19.1601 94.9082 18.8001 93.9322 18.8001C92.9562 18.8001 92.1642 19.1601 91.5562 19.8801C90.9482 20.5841 90.6442 21.5121 90.6442 22.6641C90.6442 23.8001 90.9482 24.7281 91.5562 25.4481C92.1642 26.1521 92.9562 26.5041 93.9322 26.5041Z" fill="#F7F7F7"/>
<path d="M109.208 29.2401C108.008 29.2401 106.928 28.9521 105.968 28.3761C105.024 27.8001 104.272 27.0161 103.712 26.0241C103.168 25.0321 102.896 23.9041 102.896 22.6401C102.896 21.3921 103.168 20.2721 103.712 19.2801C104.272 18.2881 105.024 17.5041 105.968 16.9281C106.928 16.3521 108.008 16.0641 109.208 16.0641C110.344 16.0641 111.376 16.2721 112.304 16.6881C113.248 17.1041 113.984 17.6881 114.512 18.4401L112.712 20.6001C112.376 20.1361 111.912 19.7441 111.32 19.4241C110.728 19.0881 110.128 18.9201 109.52 18.9201C108.848 18.9201 108.248 19.0881 107.72 19.4241C107.208 19.7441 106.8 20.1841 106.496 20.7441C106.208 21.3041 106.064 21.9361 106.064 22.6401C106.064 23.3441 106.216 23.9761 106.52 24.5361C106.824 25.0961 107.24 25.5441 107.768 25.8801C108.296 26.2001 108.888 26.3601 109.544 26.3601C110.168 26.3601 110.744 26.2241 111.272 25.9521C111.8 25.6641 112.28 25.2641 112.712 24.7521L114.512 26.9121C113.968 27.6161 113.216 28.1841 112.256 28.6161C111.296 29.0321 110.28 29.2401 109.208 29.2401Z" fill="#F7F7F7"/>
<path d="M121.472 29.2401C120.416 29.2401 119.464 28.9521 118.616 28.3761C117.768 27.8001 117.088 27.0161 116.576 26.0241C116.08 25.0321 115.832 23.9041 115.832 22.6401C115.832 21.3441 116.08 20.2081 116.576 19.2321C117.088 18.2401 117.776 17.4641 118.64 16.9041C119.52 16.3441 120.512 16.0641 121.616 16.0641C122.512 16.0641 123.296 16.2481 123.968 16.6161C124.64 16.9681 125.176 17.4321 125.576 18.0081V16.3281H128.84V29.0001H125.552V27.2961C125.104 27.8561 124.52 28.3201 123.8 28.6881C123.096 29.0561 122.32 29.2401 121.472 29.2401ZM122.36 26.3841C123.336 26.3841 124.128 26.0401 124.736 25.3521C125.344 24.6641 125.648 23.7601 125.648 22.6401C125.648 21.5201 125.344 20.6161 124.736 19.9281C124.128 19.2401 123.336 18.8961 122.36 18.8961C121.4 18.8961 120.616 19.2401 120.008 19.9281C119.416 20.6161 119.12 21.5201 119.12 22.6401C119.12 23.7601 119.416 24.6641 120.008 25.3521C120.616 26.0401 121.4 26.3841 122.36 26.3841Z" fill="#F7F7F7"/>
<path d="M136.531 29.2401C135.363 29.2401 134.323 29.0481 133.411 28.6641C132.499 28.2801 131.763 27.7361 131.203 27.0321L133.267 25.2801C133.747 25.8081 134.291 26.1921 134.899 26.4321C135.507 26.6561 136.123 26.7681 136.747 26.7681C137.243 26.7681 137.643 26.6561 137.947 26.4321C138.251 26.2081 138.403 25.8961 138.403 25.4961C138.403 25.1441 138.259 24.8641 137.971 24.6561C137.683 24.4641 136.995 24.2241 135.907 23.9361C134.291 23.5201 133.147 22.9521 132.475 22.2321C131.883 21.5921 131.587 20.8001 131.587 19.8561C131.587 19.1041 131.811 18.4481 132.259 17.8881C132.707 17.3121 133.299 16.8641 134.035 16.5441C134.771 16.2241 135.571 16.0641 136.435 16.0641C137.427 16.0641 138.363 16.2401 139.243 16.5921C140.123 16.9441 140.859 17.4241 141.451 18.0321L139.675 19.9761C139.227 19.5601 138.707 19.2161 138.115 18.9441C137.539 18.6561 137.003 18.5121 136.507 18.5121C135.355 18.5121 134.779 18.9121 134.779 19.7121C134.795 20.0961 134.971 20.4001 135.307 20.6241C135.627 20.8481 136.355 21.1121 137.491 21.4161C139.011 21.8161 140.083 22.3441 140.707 23.0001C141.251 23.5601 141.523 24.3041 141.523 25.2321C141.523 26.0001 141.299 26.6881 140.851 27.2961C140.419 27.9041 139.827 28.3841 139.075 28.7361C138.323 29.0721 137.475 29.2401 136.531 29.2401Z" fill="#F7F7F7"/>
<path d="M145.249 29.0001V19.2801H142.849V16.3281H145.249V13.0881H148.513V16.3281H151.177V19.2801H148.513V29.0001H145.249Z" fill="#F7F7F7"/>
<path d="M153.376 29.0001V16.3281H156.544L156.592 18.4161C157.008 17.7281 157.552 17.1681 158.224 16.7361C158.912 16.2881 159.632 16.0641 160.384 16.0641C160.672 16.0641 160.936 16.0881 161.176 16.1361C161.432 16.1681 161.648 16.2161 161.824 16.2801L160.936 19.8801C160.76 19.7841 160.536 19.7041 160.264 19.6401C159.992 19.5761 159.72 19.5441 159.448 19.5441C158.664 19.5441 158 19.8161 157.456 20.3601C156.928 20.8881 156.664 21.5601 156.664 22.3761V29.0001H153.376Z" fill="#F7F7F7"/>
<path d="M38.125 19.8877C38.1494 23.0543 37.3397 26.1715 35.7773 28.9259C35.575 29.2838 35.3607 29.6338 35.1344 29.9759C35.0225 30.1499 34.8772 30.2998 34.7069 30.4172C34.5366 30.5345 34.3447 30.6169 34.1424 30.6595C33.94 30.7022 33.7312 30.7042 33.528 30.6655C33.3249 30.6268 33.1314 30.5482 32.9589 30.4342C32.7864 30.3202 32.6382 30.1731 32.5229 30.0014C32.4077 29.8297 32.3277 29.6368 32.2875 29.4339C32.2474 29.231 32.2479 29.0222 32.2891 28.8195C32.3302 28.6169 32.4112 28.4244 32.5273 28.2533C34.0185 25.9897 34.8685 23.3644 34.9869 20.6564C35.1054 17.9484 34.4879 15.259 33.2001 12.8738C31.9122 10.4887 30.0022 8.49714 27.673 7.11075C25.3438 5.72436 22.6824 4.99499 19.9719 5.00016C14.7617 5.01032 10.1422 7.74547 7.45703 11.8322C5.85185 14.2703 4.99768 17.126 5.00046 20.0451C5.00324 22.9642 5.86284 25.8182 7.47265 28.2533C7.70088 28.5992 7.78235 29.0216 7.69913 29.4276C7.61591 29.8336 7.37482 30.1899 7.0289 30.4181C6.68298 30.6464 6.26056 30.7278 5.85458 30.6446C5.44859 30.5614 5.09229 30.3203 4.86406 29.9744C3.07906 27.2655 2.05377 24.1273 1.89517 20.8871C1.73658 17.6469 2.45049 14.4235 3.96241 11.5533C5.47433 8.68312 7.72885 6.27128 10.4907 4.56947C13.2526 2.86767 16.4205 1.93828 19.6641 1.87829C19.7781 1.87594 19.8914 1.87516 20.0047 1.87516C24.7948 1.86529 29.3932 3.75643 32.7905 7.13347C36.1877 10.5105 38.1063 15.0975 38.125 19.8877V19.8877Z" fill="white"/>
<path d="M9.06588 22.7945L11.8978 36.882C12.0678 37.7276 12.8911 38.2754 13.7368 38.1054C14.5825 37.9354 15.1303 37.112 14.9603 36.2663L12.1284 22.1788C11.9584 21.3331 11.135 20.7854 10.2893 20.9554C9.44363 21.1254 8.89588 21.9488 9.06588 22.7945Z" fill="#04D361"/>
<path d="M11.8438 36.5642L11.1258 36.7087C10.0589 36.9235 8.95035 36.7226 8.02674 36.1471C7.10313 35.5716 6.43429 34.6649 6.15703 33.6126C6.13594 33.5314 6.11641 33.4501 6.1 33.3673L5.07109 28.2556C4.84812 27.146 5.07482 25.9932 5.70138 25.0507C6.32793 24.1081 7.30307 23.4529 8.4125 23.229L9.13047 23.0845L10.3898 29.3407L11.8438 36.5642Z" fill="white"/>
<path d="M11.8437 36.5642L11.1258 36.7087C10.0589 36.9235 8.95035 36.7226 8.02674 36.1471C7.10313 35.5716 6.43429 34.665 6.15703 33.6126C7.6744 32.2982 9.08944 30.8701 10.3898 29.3408L11.8437 36.5642Z" fill="white"/>
<path d="M36.1476 27.0876L35.7773 28.9259C35.575 29.2837 35.3607 29.6337 35.1344 29.9759C35.0225 30.1498 34.8772 30.2998 34.7069 30.4171C34.5366 30.5345 34.3447 30.6168 34.1424 30.6595C33.94 30.7021 33.7312 30.7041 33.528 30.6654C33.3249 30.6268 33.1314 30.5481 32.9589 30.4341C32.7864 30.3201 32.6382 30.173 32.5229 30.0013C32.4077 29.8296 32.3276 29.6367 32.2875 29.4338C32.2474 29.231 32.2479 29.0221 32.2891 28.8195C32.3302 28.6168 32.4112 28.4243 32.5273 28.2532C33.5865 26.6503 34.3258 24.8578 34.7047 22.9743C35.2927 23.4669 35.7371 24.1089 35.991 24.8328C36.245 25.5566 36.2991 26.3356 36.1476 27.0876Z" fill="white"/>
<path d="M34.2953 8.82979L32.0539 11.0712C30.6573 9.18259 28.836 7.649 26.7371 6.59435C24.6383 5.53971 22.3208 4.99358 19.9719 5.00011C14.7617 5.01026 10.1422 7.74542 7.45703 11.8321L5.18359 9.5587C6.82274 7.22946 8.98843 5.31993 11.5046 3.98536C14.0207 2.65078 16.8163 1.92884 19.6641 1.87823C19.7781 1.87589 19.8914 1.87511 20.0047 1.87511C22.7591 1.86893 25.4786 2.49232 27.9553 3.69765C30.4321 4.90298 32.6006 6.65838 34.2953 8.82979V8.82979Z" fill="#8257E5"/>
<path d="M27.8463 22.1636L25.0144 36.2511C24.8444 37.0968 25.3921 37.9202 26.2378 38.0902C27.0835 38.2602 27.9069 37.7124 28.0769 36.8667L30.9088 22.7792C31.0788 21.9335 30.531 21.1102 29.6853 20.9402C28.8396 20.7702 28.0163 21.3179 27.8463 22.1636Z" fill="#04D361"/>
<path d="M34.9289 28.2556L33.9 33.3673C33.6766 34.4768 33.0216 35.4522 32.0791 36.0788C31.1366 36.7055 29.9838 36.932 28.8742 36.7087L28.1562 36.5642L28.9 32.8712L30.8695 23.0845L31.5875 23.229C32.6968 23.4532 33.672 24.1081 34.2992 25.0501C34.3856 25.18 34.4646 25.3145 34.5359 25.4532C34.9817 26.3155 35.1203 27.3039 34.9289 28.2556V28.2556Z" fill="white"/>
<path d="M34.9289 28.2556L33.9 33.3673C33.6766 34.4769 33.0216 35.4522 32.0791 36.0789C31.1366 36.7055 29.9838 36.9321 28.8742 36.7087L28.1562 36.5642L28.9 32.8712C31.0403 30.6087 32.9299 28.1217 34.5359 25.4532C34.9817 26.3155 35.1203 27.304 34.9289 28.2556V28.2556Z" fill="white"/>
</svg>
